<svg xmlns="http://www.w3.org/2000/svg" aria-hidden="true" style="position:absolute;width:0;height:0;overflow:hidden">
  <defs>
    <symbol id="icon-radio" viewBox="0 0 32 32">
      <path stroke-width="2.667" d="M16 4c6.627 0 12 5.373 12 12s-5.373 12-12 12S4 22.627 4 16 9.373 4 16 4z"/>
    </symbol>
    <symbol id="icon-radio-checked" viewBox="0 0 32 32">
      <path fill="none" stroke="#f4c550" stroke-width="2.667" d="M16 4c6.627 0 12 5.373 12 12s-5.373 12-12 12S4 22.627 4 16 9.373 4 16 4z" style="stroke:var(--color1, #f4c550)"/>
      <path fill="#f4c550" d="M16 9.333a6.667 6.667 0 1 1 0 13.334 6.667 6.667 0 0 1 0-13.334z" style="fill:var(--color1, #f4c550)"/>
    </symbol>
    <symbol id="icon-mac" viewBox="0 0 66 32">
      <path d="M1.283 0C.639 0 .116.523.116 1.169v42.616c0 .646.522 1.169 1.167 1.169h63.07c.645 0 1.167-.523 1.167-1.169V1.169C65.52.523 64.998 0 64.353 0H1.283z"/>
    </symbol>
    <symbol id="icon-apple" viewBox="0 0 26 32">
      <path d="M19.7.778c0 1.566-.561 3.029-1.678 4.382-1.349 1.609-2.98 2.539-4.75 2.392a4.886 4.886 0 0 1-.036-.594c0-1.503.641-3.113 1.781-4.428.569-.666 1.292-1.22 2.169-1.662.875-.435 1.703-.676 2.482-.717a5.243 5.243 0 0 1 .032.626z"/>
      <path d="M25.622 24.557a17.159 17.159 0 0 1-1.65 3.027c-.868 1.262-1.578 2.136-2.126 2.621-.849.796-1.758 1.204-2.732 1.228-.699 0-1.542-.203-2.523-.615-.985-.41-1.889-.613-2.717-.613-.868 0-1.798.203-2.794.613-.997.412-1.8.626-2.414.648-.934.041-1.865-.379-2.794-1.26-.593-.528-1.335-1.432-2.223-2.714-.953-1.369-1.737-2.956-2.351-4.765C.64 20.773.311 18.88.311 17.048c0-2.099.444-3.909 1.335-5.426.7-1.219 1.63-2.18 2.795-2.885S6.865 7.672 8.22 7.649c.742 0 1.714.234 2.923.694 1.205.462 1.979.696 2.318.696.254 0 1.113-.274 2.571-.819 1.378-.506 2.541-.716 3.494-.633 2.582.213 4.522 1.251 5.812 3.123-2.309 1.428-3.452 3.428-3.429 5.993.021 1.998.731 3.661 2.127 4.981a6.984 6.984 0 0 0 2.126 1.423c-.171.505-.35.988-.542 1.452z"/>
    </symbol>
    <symbol id="icon-heart-yellow" viewBox="0 0 32 32">
      <path fill="#f4c550" stroke="#f4c550" stroke-linecap="round" stroke-linejoin="round" stroke-width="1.231" d="M27.787 6.147a7.326 7.326 0 0 0-10.373 0L16.001 7.56l-1.413-1.413a7.333 7.333 0 0 0-10.374 0 7.333 7.333 0 0 0 0 10.374l11.787 11.787 11.787-11.787a7.326 7.326 0 0 0 0-10.373z" style="fill:var(--color1, #f4c550);stroke:var(--color1, #f4c550)"/>
    </symbol>
    <symbol id="icon-heart" viewBox="0 0 32 32">
      <path stroke-linecap="round" stroke-linejoin="round" stroke-width="2.462" d="M27.787 6.147a7.326 7.326 0 0 0-10.373 0L16.001 7.56l-1.413-1.413a7.333 7.333 0 0 0-10.374 0 7.333 7.333 0 0 0 0 10.374l11.787 11.787 11.787-11.787a7.326 7.326 0 0 0 0-10.373z"/>
    </symbol>
    <symbol id="icon-star-yellow" viewBox="0 0 32 32">
      <path fill="#ffc531" stroke="#ffc531" stroke-width="2.4" d="M12.4 9.394 16 2.572l3.6 6.822a2.2 2.2 0 0 0 1.571 1.141l7.601 1.315-5.376 5.532a2.2 2.2 0 0 0-.6 1.846l1.098 7.635-6.922-3.404a2.199 2.199 0 0 0-1.941 0l-6.922 3.404 1.098-7.635a2.2 2.2 0 0 0-.6-1.846L3.231 11.85l7.601-1.315a2.202 2.202 0 0 0 1.571-1.141zm16.635 2.185zM7.767 27.031z" style="fill:var(--color2, #ffc531);stroke:var(--color2, #ffc531)"/>
    </symbol>
    <symbol id="icon-book-open" viewBox="0 0 32 32">
      <path stroke-linecap="round" stroke-linejoin="round" stroke-width="3" d="M29.333 8.267c0-1.493 0-2.24-.291-2.811a2.666 2.666 0 0 0-1.165-1.165C27.306 4 26.56 4 25.066 4h-.533c-2.987 0-4.48 0-5.621.581a5.331 5.331 0 0 0-2.331 2.331C16 8.053 16 9.546 16 12.533V28l.133-.2c.926-1.389 1.389-2.084 2.001-2.587a5.345 5.345 0 0 1 1.837-.983c.758-.23 1.593-.23 3.262-.23h1.833c1.494 0 2.24 0 2.811-.291.502-.256.91-.664 1.165-1.165.291-.57.291-1.317.291-2.811V8.266z"/>
      <path stroke-linecap="round" stroke-linejoin="round" stroke-width="3" d="M2.667 8.267c0-1.493 0-2.24.291-2.811.256-.502.664-.91 1.165-1.165C4.693 4 5.44 4 6.934 4h.533c2.987 0 4.48 0 5.621.581a5.331 5.331 0 0 1 2.331 2.331C16 8.053 16 9.546 16 12.533V28l-.133-.2c-.926-1.389-1.389-2.084-2.001-2.587a5.345 5.345 0 0 0-1.837-.983C11.271 24 10.436 24 8.767 24H6.934c-1.493 0-2.24 0-2.811-.291a2.666 2.666 0 0 1-1.165-1.165c-.291-.57-.291-1.317-.291-2.811V8.266z"/>
    </symbol>
    <symbol id="icon-circle-green" viewBox="0 0 32 32">
      <path fill="#fff" d="M32 16c0 8.837-7.163 16-16 16S0 24.837 0 16 7.163 0 16 0s16 7.163 16 16z" style="fill:var(--color3, #fff)"/>
      <path fill="#38cd3e" d="M26.667 16c0 5.891-4.776 10.667-10.667 10.667S5.333 21.891 5.333 16 10.109 5.333 16 5.333 26.667 10.109 26.667 16z" style="fill:var(--color4, #38cd3e)"/>
    </symbol>
    <symbol id="icon-log-in" viewBox="0 0 32 32">
      <path stroke-linecap="round" stroke-linejoin="round" stroke-width="3.2" d="M20 4h1.6c2.24 0 3.36 0 4.216.436a3.996 3.996 0 0 1 1.748 1.748C28 7.04 28 8.16 28 10.4v11.2c0 2.24 0 3.36-.436 4.216a4.001 4.001 0 0 1-1.748 1.748C24.96 28 23.84 28 21.6 28H20"/>
      <path stroke-linecap="round" stroke-linejoin="round" stroke-width="3.2" d="M13.333 9.333 20 16m0 0-6.667 6.667M20 16H4"/>
    </symbol>
    <symbol id="icon-close" viewBox="0 0 32 32">
      <path stroke-linecap="round" stroke-linejoin="round" stroke-width="2.5" d="M24 8 8 24"/>
      <path stroke-linecap="round" stroke-linejoin="round" stroke-width="2.5" d="m8 8 16 16"/>
    </symbol>
    <symbol id="icon-chevron-up" viewBox="0 0 32 32">
      <path stroke-linecap="round" stroke-linejoin="round" stroke-width="3.2" d="m24 20-8-8-8 8"/>
    </symbol>
    <symbol id="icon-chevron-down" viewBox="0 0 32 32">
      <path stroke-linecap="round" stroke-linejoin="round" stroke-width="3.2" d="m8 12 8 8 8-8"/>
    </symbol>
  </defs>
</svg>
